<?xml version="1.0" standalone="no"?>
<!DOCTYPE svg PUBLIC "-//W3C//DTD SVG 20010904//EN"
 "http://www.w3.org/TR/2001/REC-SVG-20010904/DTD/svg10.dtd">
<svg version="1.0" xmlns="http://www.w3.org/2000/svg"
 width="200.000000pt" height="200.000000pt" viewBox="0 0 200.000000 200.000000"
 preserveAspectRatio="xMidYMid meet">

<g transform="translate(0.000000,200.000000) scale(0.100000,-0.100000)"
fill="#000000" stroke="none">
<path d="M687 1657 l-27 -28 30 -30 c25 -26 31 -28 36 -14 4 8 16 21 29 28
l22 12 -31 30 -31 30 -28 -28z"/>
<path d="M1066 1631 c-2 -3 -36 -127 -76 -276 -40 -148 -87 -326 -106 -394
-19 -69 -34 -129 -34 -136 0 -12 118 -47 124 -36 2 3 36 128 76 276 40 149 87
326 106 394 19 69 34 129 34 136 0 12 -118 47 -124 36z"/>
<path d="M496 1543 c-9 -18 -31 -40 -48 -49 l-32 -16 30 -16 c16 -8 32 -20 36
-26 4 -6 13 -20 21 -30 14 -19 15 -19 29 8 8 15 27 35 42 45 l28 19 -30 17
c-16 10 -36 32 -44 49 l-15 31 -17 -32z"/>
<path d="M571 1355 c-72 -75 -131 -140 -131 -145 0 -5 60 -72 134 -147 l135
-138 40 40 40 40 -95 98 c-52 53 -94 102 -94 107 0 5 42 54 94 107 l95 98 -37
38 c-20 20 -39 37 -43 37 -3 0 -66 -61 -138 -135z"/>
<path d="M1288 1453 l-37 -38 95 -98 c52 -53 94 -102 94 -107 0 -5 -42 -54
-94 -107 l-95 -98 40 -40 40 -40 135 138 c74 75 134 142 134 147 0 11 -259
280 -269 280 -4 0 -23 -17 -43 -37z"/>
<path d="M1680 1441 c0 -6 -11 -20 -24 -33 l-24 -23 29 -28 c24 -24 30 -26 35
-12 4 8 16 21 29 28 l22 12 -34 33 c-18 18 -33 28 -33 23z"/>
<path d="M1527 1029 c-24 -24 -26 -30 -12 -35 8 -4 21 -16 28 -29 l12 -22 33
34 c18 18 28 33 23 33 -6 0 -20 11 -33 24 l-23 24 -28 -29z"/>
<path d="M430 794 c-118 -18 -214 -40 -226 -51 -10 -11 -14 -43 -14 -117 0
-117 10 -137 58 -120 26 9 27 13 32 89 l5 80 65 13 c36 7 133 14 215 15 127 1
159 -2 212 -20 123 -41 193 -99 193 -160 0 -34 16 -53 45 -53 28 0 45 19 45
51 0 33 71 102 133 128 107 46 280 58 444 32 l82 -13 3 -76 c3 -73 4 -77 30
-86 48 -17 58 3 58 119 0 70 -4 106 -12 113 -21 17 -167 42 -279 49 -184 10
-328 -22 -442 -99 l-58 -39 -37 32 c-48 43 -143 86 -228 104 -63 13 -258 18
-324 9z"/>
<path d="M105 446 c-13 -19 -14 -29 -5 -45 11 -21 17 -21 385 -21 243 0 375
-4 375 -10 0 -24 74 -90 112 -101 69 -18 148 13 187 74 l20 32 333 1 c183 1
343 2 355 3 34 2 48 36 28 67 l-15 24 -375 0 c-326 0 -376 -2 -389 -16 -9 -8
-16 -19 -16 -24 0 -5 -12 -22 -26 -39 -34 -41 -83 -43 -113 -5 -12 15 -21 32
-21 39 0 6 -8 19 -18 28 -17 15 -60 17 -410 17 l-392 0 -15 -24z"/>
</g>
</svg>
