<?xml version="1.0" standalone="no"?>
<!DOCTYPE svg PUBLIC "-//W3C//DTD SVG 20010904//EN"
 "http://www.w3.org/TR/2001/REC-SVG-20010904/DTD/svg10.dtd">
<svg version="1.0" xmlns="http://www.w3.org/2000/svg"
 width="512.000000pt" height="512.000000pt" viewBox="0 0 512.000000 512.000000"
 preserveAspectRatio="xMidYMid meet">
<metadata>
Created by potrace 1.14, written by Peter Selinger 2001-2017
</metadata>
<g transform="translate(0.000000,512.000000) scale(0.100000,-0.100000)"
fill="#000000" stroke="none">
<path d="M1824 4319 c-5 -8 -18 -32 -30 -54 -14 -26 -37 -48 -65 -63 -24 -13
-47 -26 -51 -30 -5 -5 15 -21 43 -37 35 -21 59 -44 77 -77 15 -27 30 -48 34
-48 4 0 18 22 33 48 19 36 39 55 81 78 l55 31 -54 28 c-43 23 -60 40 -84 83
-22 40 -33 51 -39 41z"/>
<path d="M2720 4184 c0 -3 -25 -99 -56 -212 -30 -114 -57 -214 -59 -222 -12
-48 -184 -688 -189 -700 -3 -8 -8 -26 -10 -40 -3 -14 -15 -59 -26 -100 -11
-41 -23 -83 -25 -93 -2 -10 -14 -52 -25 -95 -12 -42 -23 -84 -25 -92 -2 -8
-13 -49 -24 -90 -12 -41 -39 -142 -61 -225 -21 -82 -44 -166 -50 -185 -13 -44
-13 -46 3 -48 6 0 48 -10 92 -22 44 -12 87 -23 95 -25 8 -2 15 -4 15 -5 0 -1
7 -3 15 -5 8 -1 35 -8 59 -14 23 -7 44 -11 45 -9 4 8 27 79 30 95 2 10 16 63
31 118 15 55 28 107 30 115 2 8 13 49 24 90 12 41 51 185 87 320 36 135 77
288 91 340 14 52 27 102 29 110 6 25 32 120 58 220 15 52 42 156 62 230 20 74
56 207 80 295 24 88 40 162 36 166 -4 3 -29 12 -57 19 -27 7 -97 26 -154 41
-110 31 -121 33 -121 23z"/>
<path d="M1292 3985 c-12 -20 -22 -40 -22 -44 0 -5 -7 -14 -15 -21 -8 -7 -13
-16 -10 -20 7 -12 -36 -46 -107 -82 l-67 -35 78 -43 c76 -42 81 -47 118 -117
21 -40 41 -73 45 -73 3 0 24 33 46 73 37 67 46 76 104 107 98 52 98 48 12 95
-72 40 -78 46 -118 119 l-43 78 -21 -37z"/>
<path d="M1655 3664 c-239 -248 -286 -298 -414 -430 -65 -66 -121 -126 -125
-132 -4 -7 21 -40 61 -81 75 -76 393 -405 545 -564 l98 -102 105 105 c58 58
104 108 103 112 -3 5 -229 243 -431 451 -77 79 -77 66 8 152 147 149 421 437
423 446 4 9 -196 209 -208 209 -3 0 -77 -75 -165 -166z"/>
<path d="M3292 3731 c-56 -55 -102 -103 -102 -108 0 -8 42 -52 349 -368 69
-72 132 -138 139 -147 11 -14 -6 -36 -131 -165 -270 -278 -357 -368 -357 -373
0 -3 47 -53 105 -110 l106 -105 87 92 c48 50 188 196 312 324 124 128 239 246
255 263 61 64 61 60 13 109 -60 61 -498 515 -589 610 -40 42 -76 77 -79 77 -4
0 -52 -45 -108 -99z"/>
<path d="M4296 3669 c-18 -39 -62 -89 -79 -89 -4 0 -19 -7 -33 -16 l-25 -17
23 -16 c13 -9 36 -23 52 -31 16 -8 38 -31 48 -50 43 -80 37 -78 70 -17 24 45
40 61 86 85 l55 30 -49 25 c-56 28 -74 47 -99 100 -9 20 -20 37 -24 37 -3 0
-14 -19 -25 -41z"/>
<path d="M3956 2679 c-21 -37 -41 -57 -77 -77 -27 -15 -49 -30 -49 -34 0 -4
22 -19 50 -33 39 -20 55 -36 75 -75 14 -28 29 -50 33 -50 4 0 18 22 31 49 19
38 34 54 77 76 60 32 60 40 -7 70 -30 14 -47 31 -65 66 -13 26 -28 50 -32 53
-5 3 -21 -17 -36 -45z"/>
<path d="M1407 2054 c-1 -1 -60 -5 -132 -9 -71 -3 -132 -8 -135 -10 -3 -1 -34
-6 -68 -9 -132 -14 -421 -70 -507 -98 -25 -8 -48 -25 -63 -48 -23 -34 -23 -37
-20 -282 l3 -248 33 -32 c28 -28 39 -33 82 -33 43 0 54 5 82 33 l33 32 3 185
c3 162 5 185 20 189 22 6 169 36 202 41 44 6 104 15 135 20 32 5 124 15 190
20 57 5 384 5 420 1 17 -3 54 -8 84 -11 262 -32 488 -129 621 -266 82 -84 90
-99 90 -167 0 -38 6 -78 16 -97 28 -59 113 -81 172 -44 32 20 52 70 52 131 0
53 2 56 63 120 101 106 229 182 392 234 96 31 148 41 305 63 80 11 419 11 515
0 88 -10 212 -27 248 -34 51 -10 82 -15 120 -21 l37 -7 0 -164 c0 -187 9 -221
65 -247 57 -27 116 -15 150 32 18 25 20 45 23 259 3 199 1 238 -13 267 -16 34
-55 60 -105 70 -14 2 -65 14 -115 24 -153 34 -326 58 -480 67 -94 6 -352 6
-401 0 -21 -3 -57 -7 -79 -9 -211 -24 -424 -86 -575 -169 -73 -40 -166 -106
-215 -153 l-40 -39 -64 63 c-167 164 -435 284 -711 318 -25 3 -51 7 -59 10
-19 6 -368 23 -374 18z"/>
<path d="M322 1195 c-84 -24 -108 -138 -42 -197 17 -16 40 -29 53 -29 12 -1
431 -3 932 -4 501 -2 915 -3 922 -4 6 0 15 -13 21 -28 5 -16 30 -55 55 -89
127 -168 351 -218 540 -121 55 27 167 141 192 194 l20 43 881 0 c577 0 891 4
910 10 75 27 95 134 36 193 l-32 32 -960 2 -959 3 -34 -33 c-21 -19 -40 -50
-46 -74 -14 -50 -64 -119 -108 -149 -18 -12 -50 -24 -73 -28 -103 -16 -185 47
-226 174 -18 56 -62 109 -93 111 -9 1 -452 2 -984 3 -636 1 -981 -3 -1005 -9z"/>
</g>
</svg>
